<?xml version="1.0" encoding="utf-8"?>
<!-- Generator: Adobe Illustrator 19.1.0, SVG Export Plug-In . SVG Version: 6.00 Build 0)  -->
<svg version="1.1" id="Camada_1" xmlns="http://www.w3.org/2000/svg" xmlns:xlink="http://www.w3.org/1999/xlink" x="0px" y="0px"
	 viewBox="0 0 907.1 652" style="enable-background:new 0 0 907.1 652;" xml:space="preserve">
<style type="text/css">
	.st0{fill:none;stroke:#000000;stroke-width:0.2364;stroke-miterlimit:3.8636;}
	.st1{fill:none;stroke:#000000;stroke-width:3.783;stroke-miterlimit:3.8636;}
	.st2{fill:none;stroke:#000000;stroke-width:1.8915;stroke-miterlimit:3.8636;}
	.st3{fill:none;stroke:#000000;stroke-width:0.9457;stroke-miterlimit:3.8636;}
	.st4{fill:#010202;}
	.st5{fill:none;stroke:#010202;stroke-width:0.9457;stroke-miterlimit:3.8637;}
	.st6{font-family:'Arial-BoldMT';}
	.st7{font-size:6.7987px;}
	.st8{font-size:5.099px;}
	.st9{font-size:4.2492px;}
	.st10{fill-rule:evenodd;clip-rule:evenodd;fill:#FFFFFF;}
</style>
<line class="st0" x1="101.4" y1="235.2" x2="101.4" y2="295.4"/>
<polyline class="st1" points="28.2,217.5 28.2,214.9 100.9,214.9 100.9,217 "/>
<line class="st1" x1="28.2" y1="228.5" x2="28.2" y2="235.4"/>
<line class="st2" x1="28.8" y1="231.9" x2="64.4" y2="231.9"/>
<line class="st2" x1="64.2" y1="224" x2="64.2" y2="240.9"/>
<line class="st2" x1="64.2" y1="248.5" x2="64.2" y2="252.8"/>
<line class="st2" x1="64.9" y1="252.1" x2="27.3" y2="252.1"/>
<line class="st3" x1="28.2" y1="217.5" x2="28.2" y2="228.3"/>
<line class="st3" x1="28.2" y1="234" x2="28.2" y2="252.5"/>
<line class="st2" x1="82.4" y1="215" x2="82.4" y2="242.8"/>
<line class="st3" x1="100.9" y1="233.7" x2="100.9" y2="295.6"/>
<line class="st1" x1="100.9" y1="247.7" x2="100.9" y2="251.2"/>
<line class="st2" x1="100.9" y1="250.2" x2="82.3" y2="250.2"/>
<line class="st2" x1="82.4" y1="250.9" x2="82.4" y2="248.5"/>
<line class="st3" x1="28.2" y1="254.2" x2="28.2" y2="307.8"/>
<line class="st1" x1="28.2" y1="305.3" x2="28.2" y2="310"/>
<line class="st1" x1="28.2" y1="286.5" x2="28.2" y2="294.4"/>
<line class="st1" x1="28.2" y1="251.1" x2="28.2" y2="253.9"/>
<line class="st2" x1="29.4" y1="292.1" x2="75.2" y2="292.1"/>
<line class="st2" x1="80.1" y1="292.1" x2="82.5" y2="292.1"/>
<line class="st2" x1="80.1" y1="278.5" x2="82.5" y2="278.5"/>
<line class="st2" x1="81.9" y1="277" x2="81.9" y2="316.8"/>
<line class="st2" x1="94.1" y1="309.5" x2="101.2" y2="309.5"/>
<line class="st1" x1="100.9" y1="318.5" x2="100.9" y2="295.3"/>
<line class="st2" x1="87.5" y1="309.8" x2="27.6" y2="309.8"/>
<line class="st2" x1="42" y1="292.3" x2="42" y2="295.6"/>
<line class="st2" x1="42" y1="298.1" x2="42" y2="301.6"/>
<line class="st2" x1="42" y1="306" x2="42" y2="310.8"/>
<line class="st2" x1="27.7" y1="300.2" x2="41.9" y2="300.2"/>
<line class="st1" x1="28.8" y1="308.8" x2="14.3" y2="308.8"/>
<line class="st3" x1="15.3" y1="310.2" x2="15.3" y2="361.6"/>
<line class="st2" x1="13.3" y1="361.5" x2="48.5" y2="361.5"/>
<line class="st2" x1="28.7" y1="343.5" x2="50.7" y2="343.5"/>
<line class="st1" x1="15.3" y1="342.6" x2="15.3" y2="345"/>
<line class="st2" x1="15.8" y1="362.2" x2="17.4" y2="382.5"/>
<line class="st2" x1="36" y1="343.5" x2="15.7" y2="343.5"/>
<line class="st2" x1="82.1" y1="323.8" x2="82.1" y2="330.5"/>
<line class="st2" x1="99" y1="321.9" x2="99" y2="331.4"/>
<line class="st2" x1="83.3" y1="412.9" x2="82" y2="420"/>
<line class="st2" x1="83.1" y1="414.1" x2="78.1" y2="445.2"/>
<line class="st2" x1="78.1" y1="445.2" x2="99" y2="445.2"/>
<line class="st2" x1="98.6" y1="412.5" x2="98.6" y2="447.7"/>
<line class="st3" x1="97.3" y1="446.8" x2="154" y2="446.8"/>
<line class="st2" x1="151.7" y1="375.3" x2="151.7" y2="415.3"/>
<line class="st1" x1="152.5" y1="414" x2="152.5" y2="448"/>
<line class="st2" x1="146.1" y1="380.6" x2="152" y2="380.6"/>
<line class="st2" x1="151.9" y1="381.5" x2="154.5" y2="381.5"/>
<line class="st2" x1="130.3" y1="380.6" x2="138.4" y2="380.6"/>
<line class="st2" x1="130.6" y1="363.4" x2="140" y2="363.4"/>
<line class="st2" x1="144.6" y1="363.6" x2="174.3" y2="363.6"/>
<line class="st3" x1="169.7" y1="364.1" x2="421.3" y2="364.1"/>
<path class="st3" d="M100,309.3c27.4,4.6,48.8,26.7,52.4,54.5"/>
<path class="st2" d="M92.9,330.5c8.3,0.7,15.9,3.8,22.1,8.6"/>
<path class="st2" d="M122.7,346.9c4.7,6.3,7.7,13.9,8.2,22.2"/>
<path class="st2" d="M130.9,375.4c-1.7,19.9-17.4,35.9-37.2,37.9"/>
<path class="st1" d="M87.4,413.4c-2.6-0.1-5.1-0.5-7.5-1.1"/>
<path class="st3" d="M79.9,412.4c-3.2-0.8-6.3-1.9-9.2-3.4"/>
<path class="st1" d="M70.7,409c-2.2-1.1-4.4-2.5-6.4-4"/>
<path class="st3" d="M64.4,405c-2.9-2.2-5.5-4.8-7.8-7.7"/>
<path class="st1" d="M56.6,397.3c-1.3-1.7-2.5-3.4-3.5-5.3"/>
<path class="st3" d="M53.1,392c-1.7-3-3-6.2-3.9-9.5"/>
<path class="st1" d="M49.3,382.5c-0.7-2.7-1.2-5.6-1.3-8.5"/>
<path class="st2" d="M48.2,367.5c2.1-20.4,19-36.3,39.7-37.1"/>
<line class="st2" x1="48.6" y1="378.7" x2="17" y2="383.5"/>
<path class="st3" d="M80,431.6c-25.6-4.2-45.7-24.6-49.5-50.4"/>
<path class="st3" d="M80,434.9c-27.2-4.5-48.7-26.2-52.8-53.6"/>
<path class="st3" d="M80,437.9c-28.8-4.8-51.4-27.7-55.7-56.6"/>
<path class="st3" d="M80,440.8c-30.3-5-54.1-29.1-58.6-59.6"/>
<path class="st3" d="M80,443.6c-31.7-5.3-56.6-30.5-61.4-62.4"/>
<path class="st3" d="M126.6,320.2l-12.1,18.5c0,0-1.3,4.1,2.3,7.6c4.4,4.4,8.2,3.2,8.2,3.2l17.5-12.3l3.8,6.1l2.9,6.9l-20.2,8.2
	c0,0-10.8,1.8-17.3-5.9c-8.3-9.7-6-18.5-6-18.5l8.4-20.5l6.9,3.4L126.6,320.2z"/>
<line class="st1" x1="127.9" y1="316.3" x2="124.8" y2="321"/>
<line class="st1" x1="147.1" y1="335.9" x2="142.4" y2="339.3"/>
<line class="st2" x1="152.5" y1="363.6" x2="152.5" y2="368.2"/>
<line class="st2" x1="168.6" y1="363.7" x2="168.6" y2="368.6"/>
<line class="st2" x1="168.3" y1="375.3" x2="168.3" y2="397.6"/>
<line class="st2" x1="167.9" y1="396.8" x2="188.3" y2="396.8"/>
<line class="st2" x1="198.7" y1="372.7" x2="198.7" y2="397.5"/>
<line class="st2" x1="195.3" y1="397.6" x2="230.2" y2="397.6"/>
<line class="st2" x1="220.3" y1="372.8" x2="220.3" y2="397.9"/>
<line class="st2" x1="198" y1="374.7" x2="206.8" y2="374.7"/>
<line class="st2" x1="211.9" y1="374.7" x2="220.2" y2="374.7"/>
<line class="st3" x1="152.9" y1="415.2" x2="451.4" y2="415.2"/>
<line class="st1" x1="451.5" y1="415.1" x2="442.2" y2="415.1"/>
<line class="st2" x1="228" y1="373.8" x2="238" y2="373.8"/>
<line class="st2" x1="238" y1="370.8" x2="238" y2="391.1"/>
<line class="st2" x1="237.6" y1="387.4" x2="244.7" y2="387.4"/>
<line class="st2" x1="238.1" y1="375.6" x2="251.9" y2="375.6"/>
<line class="st2" x1="251.7" y1="362.4" x2="251.7" y2="397.6"/>
<line class="st2" x1="236.1" y1="397.5" x2="255" y2="397.5"/>
<line class="st2" x1="261" y1="397.9" x2="295.3" y2="397.9"/>
<line class="st2" x1="290.3" y1="362.2" x2="290.3" y2="398.4"/>
<line class="st2" x1="277.3" y1="363.1" x2="277.3" y2="389.2"/>
<line class="st2" x1="303.7" y1="362.9" x2="303.7" y2="398"/>
<line class="st2" x1="301.9" y1="397.9" x2="307" y2="397.9"/>
<line class="st2" x1="351.9" y1="364.3" x2="351.9" y2="397.7"/>
<line class="st2" x1="346.9" y1="397.7" x2="368.7" y2="397.7"/>
<line class="st2" x1="325.6" y1="364.5" x2="325.6" y2="398"/>
<line class="st2" x1="312.8" y1="397.7" x2="340.3" y2="397.7"/>
<line class="st2" x1="377.7" y1="364.4" x2="377.7" y2="398.1"/>
<line class="st2" x1="375.9" y1="397.9" x2="397.1" y2="397.9"/>
<line class="st2" x1="405.3" y1="398" x2="429.9" y2="398"/>
<line class="st2" x1="420" y1="363.9" x2="465.5" y2="363.9"/>
<line class="st2" x1="429.2" y1="359.5" x2="429.2" y2="364.5"/>
<line class="st2" x1="429.6" y1="362.8" x2="429.6" y2="401.4"/>
<line class="st2" x1="429.7" y1="411.2" x2="429.7" y2="415.3"/>
<line class="st3" x1="429.3" y1="217.3" x2="429.3" y2="360.8"/>
<line class="st2" x1="427.9" y1="328.2" x2="431" y2="328.2"/>
<line class="st2" x1="427.9" y1="281.5" x2="431" y2="281.5"/>
<line class="st2" x1="427.9" y1="250.1" x2="431" y2="250.1"/>
<line class="st2" x1="429.5" y1="219.5" x2="429.5" y2="214.4"/>
<line class="st2" x1="427.9" y1="215.2" x2="501.2" y2="215.2"/>
<line class="st2" x1="500.9" y1="211.7" x2="500.9" y2="220"/>
<line class="st2" x1="485.4" y1="209.9" x2="485.4" y2="220.6"/>
<line class="st2" x1="465.1" y1="213.5" x2="465.1" y2="237"/>
<line class="st2" x1="464.8" y1="233.2" x2="471.4" y2="233.2"/>
<line class="st2" x1="476.8" y1="233.1" x2="502.1" y2="233.1"/>
<line class="st2" x1="482.9" y1="232" x2="482.9" y2="235.9"/>
<line class="st3" x1="500.7" y1="220" x2="500.7" y2="264.9"/>
<line class="st2" x1="497.5" y1="266" x2="502.5" y2="266"/>
<line class="st2" x1="500.3" y1="283.1" x2="500.3" y2="265.4"/>
<rect x="451.1" y="196.9" class="st4" width="3.4" height="3.4"/>
<rect x="451.1" y="196.9" class="st0" width="3.4" height="3.4"/>
<rect x="451.1" y="179.9" class="st4" width="3.4" height="3.4"/>
<rect x="451.1" y="179.9" class="st0" width="3.4" height="3.4"/>
<rect x="476.6" y="196.9" class="st4" width="3.4" height="3.4"/>
<rect x="476.6" y="196.9" class="st0" width="3.4" height="3.4"/>
<rect x="476.6" y="179.9" class="st4" width="3.4" height="3.4"/>
<rect x="476.6" y="179.9" class="st0" width="3.4" height="3.4"/>
<polyline class="st2" points="501,201 501,167 431,167 431,214.9 "/>
<line class="st2" x1="431" y1="250.2" x2="482.5" y2="250.2"/>
<line class="st2" x1="465.2" y1="244.7" x2="465.2" y2="250.6"/>
<line class="st2" x1="481.7" y1="250.1" x2="485.2" y2="250.1"/>
<line class="st2" x1="431.1" y1="281.5" x2="470.5" y2="281.5"/>
<line class="st2" x1="465.1" y1="280.8" x2="465.1" y2="297.8"/>
<line class="st2" x1="482.9" y1="250" x2="482.9" y2="328.8"/>
<line class="st2" x1="479" y1="328.7" x2="484.7" y2="328.7"/>
<line class="st2" x1="431" y1="328.5" x2="470.7" y2="328.5"/>
<line class="st2" x1="465.1" y1="312.3" x2="465.1" y2="333.5"/>
<line class="st2" x1="464.6" y1="340.6" x2="464.6" y2="364"/>
<line class="st2" x1="481.2" y1="363.7" x2="499.8" y2="363.7"/>
<line class="st2" x1="500.1" y1="359.5" x2="500.1" y2="366.7"/>
<line class="st2" x1="500.9" y1="364.3" x2="510.5" y2="364.3"/>
<line class="st3" x1="500.1" y1="359.4" x2="500.1" y2="316.9"/>
<line class="st2" x1="500.1" y1="296.9" x2="500.1" y2="316.9"/>
<line class="st2" x1="499.1" y1="313.4" x2="519.2" y2="313.4"/>
<line class="st0" x1="518.3" y1="265.8" x2="518.3" y2="313.8"/>
<line class="st2" x1="512.4" y1="266" x2="519.1" y2="266"/>
<line class="st2" x1="516.4" y1="281.5" x2="519.2" y2="281.5"/>
<line class="st2" x1="516.4" y1="297.6" x2="519.2" y2="297.6"/>
<line class="st2" x1="498.8" y1="297.2" x2="503.6" y2="297.2"/>
<line class="st2" x1="508.4" y1="298.2" x2="517.7" y2="298.2"/>
<line class="st2" x1="481.6" y1="355.2" x2="481.6" y2="344.9"/>
<line class="st2" x1="482.1" y1="344.9" x2="501.3" y2="344.9"/>
<line class="st0" x1="499.1" y1="344.4" x2="501.2" y2="344.4"/>
<line class="st1" x1="446.6" y1="415.9" x2="446.6" y2="449.6"/>
<line class="st3" x1="445.6" y1="448.3" x2="500.3" y2="448.3"/>
<line class="st1" x1="499.8" y1="414.5" x2="499.8" y2="449.5"/>
<line class="st2" x1="459.2" y1="416.1" x2="500.7" y2="416.1"/>
<line class="st1" x1="498.3" y1="382.8" x2="501.8" y2="382.8"/>
<line class="st1" x1="498.3" y1="398.1" x2="501.8" y2="398.1"/>
<line class="st2" x1="500.3" y1="383.4" x2="500.3" y2="414.5"/>
<line class="st2" x1="511" y1="382.8" x2="501.6" y2="382.8"/>
<line class="st2" x1="522" y1="364.4" x2="556.7" y2="364.4"/>
<line class="st2" x1="558" y1="363.3" x2="556.2" y2="366.3"/>
<line class="st2" x1="522.5" y1="382.6" x2="556.8" y2="382.6"/>
<line class="st2" x1="556.1" y1="381" x2="558" y2="383.4"/>
<path class="st3" d="M557.9,383.4c0,0,4.2,5.9,12.1,5.8"/>
<line class="st2" x1="573.3" y1="376.6" x2="573.3" y2="397"/>
<path class="st3" d="M557.9,363.4c0,0,4.2-6,12.7-6.1"/>
<line class="st2" x1="573.3" y1="378.1" x2="581.4" y2="378.1"/>
<line class="st2" x1="580.4" y1="368.7" x2="572.9" y2="368.7"/>
<line class="st2" x1="573.4" y1="370.5" x2="573.4" y2="350"/>
<line class="st2" x1="573.2" y1="350.1" x2="577.9" y2="350.1"/>
<line class="st2" x1="573.6" y1="357.3" x2="570.6" y2="357.3"/>
<line class="st2" x1="573.5" y1="389.1" x2="569.8" y2="389.1"/>
<line class="st3" x1="575" y1="350.1" x2="587.5" y2="350.1"/>
<line class="st2" x1="592.6" y1="350.1" x2="587.8" y2="350.1"/>
<line class="st2" x1="595.8" y1="343" x2="591.9" y2="343"/>
<line class="st2" x1="592.3" y1="342.7" x2="592.3" y2="370.1"/>
<line class="st0" x1="470.9" y1="407.4" x2="491.6" y2="407.4"/>
<line class="st0" x1="491.6" y1="407.4" x2="491.6" y2="415.8"/>
<line class="st0" x1="489" y1="407.5" x2="489" y2="415.8"/>
<line class="st0" x1="486.5" y1="407.5" x2="486.5" y2="415.8"/>
<line class="st0" x1="483.9" y1="407.5" x2="483.9" y2="415.8"/>
<line class="st0" x1="481.4" y1="407.5" x2="481.4" y2="415.8"/>
<line class="st0" x1="478.8" y1="407.5" x2="478.8" y2="415.8"/>
<line class="st0" x1="476.3" y1="407.5" x2="476.3" y2="415.8"/>
<line class="st0" x1="473.7" y1="407.5" x2="473.7" y2="415.8"/>
<line class="st0" x1="473.7" y1="407.5" x2="473.7" y2="415.8"/>
<line class="st0" x1="471.2" y1="407.5" x2="471.2" y2="415.8"/>
<rect x="523.5" y="321.7" class="st3" width="4.4" height="4.9"/>
<line class="st2" x1="573.3" y1="396.8" x2="577.9" y2="396.8"/>
<line class="st3" x1="576.8" y1="396.8" x2="589.6" y2="396.8"/>
<line class="st2" x1="588.4" y1="396.8" x2="593" y2="396.8"/>
<line class="st2" x1="592.5" y1="376.4" x2="592.5" y2="404.5"/>
<line class="st2" x1="585.9" y1="377.8" x2="592.5" y2="377.8"/>
<line class="st2" x1="597.7" y1="378.5" x2="591.7" y2="378.5"/>
<line class="st2" x1="585.8" y1="369" x2="593.8" y2="369"/>
<line class="st3" x1="592.1" y1="367.4" x2="600" y2="367.4"/>
<line class="st3" x1="592.1" y1="365.7" x2="600" y2="365.7"/>
<line class="st3" x1="592.1" y1="364" x2="600" y2="364"/>
<line class="st3" x1="592.1" y1="362.3" x2="600" y2="362.3"/>
<line class="st3" x1="592.1" y1="360.6" x2="600" y2="360.6"/>
<line class="st3" x1="592.1" y1="358.9" x2="600" y2="358.9"/>
<line class="st3" x1="592.1" y1="357.2" x2="600" y2="357.2"/>
<line class="st3" x1="592.1" y1="355.5" x2="600" y2="355.5"/>
<line class="st3" x1="592.1" y1="353.8" x2="600" y2="353.8"/>
<line class="st2" x1="592.1" y1="352.1" x2="600" y2="352.1"/>
<line class="st3" x1="600" y1="352.1" x2="600" y2="367.5"/>
<line class="st2" x1="604.8" y1="351.6" x2="610" y2="351.6"/>
<line class="st3" x1="595.9" y1="343" x2="651.6" y2="343"/>
<line class="st2" x1="651.6" y1="343.9" x2="651.6" y2="353"/>
<line class="st2" x1="651.6" y1="358.7" x2="651.6" y2="362.3"/>
<line class="st3" x1="651.6" y1="352.3" x2="651.6" y2="376.5"/>
<line class="st2" x1="651.6" y1="375.9" x2="651.6" y2="390.8"/>
<line class="st2" x1="651.6" y1="367.3" x2="651.6" y2="370.7"/>
<line class="st3" x1="651.6" y1="391" x2="651.6" y2="403.5"/>
<line class="st3" x1="652.2" y1="403.4" x2="639.6" y2="403.4"/>
<line class="st2" x1="639.4" y1="403.4" x2="606" y2="403.4"/>
<line class="st3" x1="608.1" y1="403.6" x2="595.6" y2="403.6"/>
<line class="st2" x1="597" y1="403.4" x2="591.4" y2="403.4"/>
<line class="st2" x1="610.1" y1="404.4" x2="610.1" y2="377.9"/>
<line class="st2" x1="603.9" y1="378.5" x2="609.3" y2="378.5"/>
<line class="st2" x1="610.3" y1="378.5" x2="614.7" y2="378.5"/>
<line class="st2" x1="620.7" y1="378.5" x2="651.6" y2="378.5"/>
<line class="st2" x1="651.1" y1="369" x2="620" y2="369"/>
<line class="st2" x1="609.4" y1="344" x2="609.4" y2="370.4"/>
<line class="st2" x1="609.7" y1="369" x2="615" y2="369"/>
<line class="st2" x1="605.9" y1="343" x2="613.9" y2="343"/>
<line class="st2" x1="620.7" y1="343" x2="625.9" y2="343"/>
<line class="st2" x1="630.6" y1="343" x2="636.5" y2="343"/>
<line class="st2" x1="638.6" y1="368.9" x2="638.6" y2="371.8"/>
<line class="st2" x1="638.6" y1="375.9" x2="638.6" y2="378.1"/>
<line class="st2" x1="631.3" y1="369.1" x2="631.3" y2="370.5"/>
<line class="st2" x1="631.3" y1="376.3" x2="631.3" y2="378.7"/>
<line class="st1" x1="647.4" y1="176.4" x2="663.2" y2="176.4"/>
<line class="st1" x1="674.5" y1="124.5" x2="674.5" y2="187.4"/>
<line class="st1" x1="674.5" y1="185.5" x2="758.9" y2="185.5"/>
<line class="st1" x1="758.1" y1="185.1" x2="758.1" y2="244.2"/>
<line class="st1" x1="759.8" y1="244.2" x2="878.1" y2="244.2"/>
<line class="st1" x1="878.1" y1="242" x2="878.1" y2="268.2"/>
<line class="st1" x1="656.5" y1="223.6" x2="674.4" y2="223.6"/>
<line class="st1" x1="675.3" y1="197.8" x2="675.3" y2="248.7"/>
<line class="st1" x1="676.1" y1="244.2" x2="695.7" y2="244.2"/>
<line class="st2" x1="718.7" y1="224.8" x2="718.7" y2="245"/>
<line class="st1" x1="722.1" y1="244.5" x2="702.9" y2="244.5"/>
<line class="st1" x1="728.4" y1="244.8" x2="758.1" y2="244.8"/>
<line class="st0" x1="716.7" y1="225.4" x2="719.5" y2="225.4"/>
<line class="st2" x1="719" y1="225.8" x2="759.3" y2="225.8"/>
<rect x="730.5" y="223" class="st4" width="3.8" height="2.3"/>
<rect x="730.5" y="223" class="st0" width="3.8" height="2.3"/>
<rect x="716.1" y="223" class="st4" width="3.8" height="2.3"/>
<rect x="716.1" y="223" class="st0" width="3.8" height="2.3"/>
<rect x="698.2" y="223" class="st4" width="3.8" height="2.3"/>
<rect x="698.2" y="223" class="st0" width="3.8" height="2.3"/>
<rect x="730.5" y="203.5" class="st4" width="3.8" height="2.3"/>
<rect x="730.5" y="203.5" class="st0" width="3.8" height="2.3"/>
<rect x="716.1" y="203.5" class="st4" width="3.8" height="2.3"/>
<rect x="716.1" y="203.5" class="st0" width="3.8" height="2.3"/>
<rect x="698.2" y="203.5" class="st4" width="3.8" height="2.3"/>
<rect x="698.2" y="203.5" class="st0" width="3.8" height="2.3"/>
<line class="st1" x1="692.8" y1="265.3" x2="736.1" y2="265.3"/>
<line class="st1" x1="718.5" y1="263" x2="718.5" y2="270.1"/>
<line class="st2" x1="695.5" y1="262.6" x2="695.5" y2="270.6"/>
<line class="st1" x1="743.5" y1="265.3" x2="752.4" y2="265.3"/>
<line class="st2" x1="759.1" y1="265.3" x2="768.4" y2="265.3"/>
<line class="st2" x1="772.5" y1="265.3" x2="782.9" y2="265.3"/>
<line class="st2" x1="786" y1="265.3" x2="794.8" y2="265.3"/>
<line class="st2" x1="779.7" y1="264.3" x2="779.7" y2="276.7"/>
<line class="st2" x1="764" y1="264.6" x2="764" y2="270.2"/>
<line class="st2" x1="764.5" y1="270.2" x2="771.1" y2="276.7"/>
<line class="st2" x1="770.9" y1="276.9" x2="783.7" y2="276.9"/>
<line class="st2" x1="783.7" y1="276.7" x2="790.1" y2="270.3"/>
<line class="st2" x1="789.7" y1="270.3" x2="789.7" y2="264.9"/>
<line class="st1" x1="818.4" y1="265.3" x2="823" y2="265.3"/>
<line class="st1" x1="827.1" y1="265.3" x2="834.3" y2="265.3"/>
<line class="st1" x1="842.9" y1="265.3" x2="859.6" y2="265.3"/>
<path class="st2" d="M842.6,267.1c0.1,0.4,0.1,0.9,0.1,1.3c0,5.5-4.5,10-10,10s-10-4.5-10-10c0-0.5,0-1,0.1-1.5"/>
<line class="st1" x1="802.5" y1="265.3" x2="810.8" y2="265.3"/>
<line class="st1" x1="807.3" y1="263" x2="807.3" y2="328.4"/>
<line class="st2" x1="806.3" y1="322.5" x2="815.8" y2="322.5"/>
<line class="st3" x1="816.1" y1="322.5" x2="847.9" y2="322.5"/>
<line class="st1" x1="848.1" y1="322.7" x2="857.7" y2="322.7"/>
<line class="st1" x1="857" y1="317.7" x2="857" y2="324.3"/>
<line class="st3" x1="857" y1="317.7" x2="857" y2="301.7"/>
<line class="st3" x1="807.4" y1="327.6" x2="807.4" y2="341.1"/>
<line class="st1" x1="807.3" y1="332.9" x2="807.3" y2="336.6"/>
<line class="st1" x1="807.3" y1="341.1" x2="807.3" y2="345.4"/>
<line class="st2" x1="798.7" y1="356.6" x2="808.1" y2="356.6"/>
<line class="st3" x1="807.6" y1="364.2" x2="807.6" y2="356.5"/>
<line class="st2" x1="807.3" y1="359.7" x2="807.3" y2="356.6"/>
<line class="st0" x1="752.4" y1="352.2" x2="802.2" y2="352.2"/>
<line class="st0" x1="802.2" y1="352" x2="802.2" y2="356"/>
<line class="st0" x1="801.4" y1="352" x2="801.4" y2="356"/>
<line class="st0" x1="800.5" y1="352" x2="800.5" y2="356"/>
<line class="st0" x1="799.7" y1="352" x2="799.7" y2="356"/>
<line class="st0" x1="798.8" y1="352" x2="798.8" y2="356"/>
<line class="st0" x1="798" y1="352" x2="798" y2="356"/>
<line class="st0" x1="797.1" y1="352" x2="797.1" y2="356"/>
<line class="st0" x1="796.3" y1="352" x2="796.3" y2="356"/>
<line class="st0" x1="758.9" y1="352" x2="758.9" y2="356"/>
<line class="st0" x1="758" y1="352" x2="758" y2="356"/>
<line class="st0" x1="757.2" y1="352" x2="757.2" y2="356"/>
<line class="st0" x1="756.3" y1="352" x2="756.3" y2="356"/>
<line class="st0" x1="755.5" y1="352" x2="755.5" y2="356"/>
<line class="st0" x1="754.6" y1="352" x2="754.6" y2="356"/>
<line class="st0" x1="753.8" y1="352" x2="753.8" y2="356"/>
<line class="st0" x1="752.9" y1="352" x2="752.9" y2="356"/>
<line class="st2" x1="807.5" y1="301.3" x2="828.7" y2="301.3"/>
<line class="st2" x1="836.2" y1="300.6" x2="857.1" y2="300.6"/>
<line class="st3" x1="857" y1="301.4" x2="857" y2="271.5"/>
<line class="st1" x1="857.1" y1="271.4" x2="857.1" y2="265.3"/>
<path class="st2" d="M835.5,268.4c0,1.6-1.3,2.8-2.8,2.8c-1.6,0-2.8-1.3-2.8-2.8"/>
<line class="st2" x1="832.6" y1="271" x2="832.6" y2="278.5"/>
<line class="st2" x1="834.7" y1="270.2" x2="840.1" y2="275.6"/>
<line class="st2" x1="830.4" y1="270.2" x2="825.2" y2="275.4"/>
<line class="st3" x1="835.9" y1="267.3" x2="842.5" y2="267.3"/>
<line class="st3" x1="835.9" y1="265.6" x2="842.5" y2="265.6"/>
<line class="st3" x1="835.9" y1="263.9" x2="842.5" y2="263.9"/>
<line class="st3" x1="835.9" y1="262.2" x2="842.5" y2="262.2"/>
<line class="st2" x1="820.9" y1="265.7" x2="820.9" y2="278.7"/>
<line class="st1" x1="804.6" y1="278.3" x2="810.4" y2="278.3"/>
<line class="st2" x1="821.3" y1="276.1" x2="826.4" y2="276.1"/>
<line class="st0" x1="826" y1="276.2" x2="826" y2="278.9"/>
<line class="st2" x1="824.8" y1="278.7" x2="836.5" y2="278.7"/>
<line class="st1" x1="747.3" y1="265.6" x2="747.3" y2="384.2"/>
<line class="st3" x1="696.7" y1="384.2" x2="807" y2="384.2"/>
<line class="st2" x1="807.3" y1="383.9" x2="807.3" y2="364.2"/>
<line class="st2" x1="807.3" y1="364.6" x2="807.3" y2="378.4"/>
<line class="st2" x1="743.3" y1="383.5" x2="750.9" y2="383.5"/>
<line class="st3" x1="696.3" y1="384.4" x2="696.3" y2="347.8"/>
<line class="st2" x1="696.1" y1="349.1" x2="696.1" y2="318.1"/>
<line class="st2" x1="695.5" y1="312.3" x2="695.5" y2="302.8"/>
<line class="st2" x1="734.6" y1="302.8" x2="674.9" y2="302.8"/>
<line class="st2" x1="674.4" y1="261.6" x2="674.4" y2="348"/>
<line class="st2" x1="674.2" y1="337" x2="684.4" y2="337"/>
<line class="st2" x1="674.1" y1="348" x2="697" y2="348"/>
<line class="st0" x1="685.9" y1="301.9" x2="693.1" y2="301.9"/>
<line class="st3" x1="695.3" y1="302.6" x2="695.5" y2="269.7"/>
<line class="st2" x1="731.6" y1="264.1" x2="731.6" y2="293"/>
<line class="st2" x1="731.6" y1="296.8" x2="731.6" y2="303.4"/>
<line class="st2" x1="742.9" y1="304.3" x2="747.3" y2="304.3"/>
<line class="st2" x1="731.6" y1="290.7" x2="735" y2="290.7"/>
<line class="st2" x1="738.8" y1="290.9" x2="747.5" y2="290.9"/>
<line class="st2" x1="675.7" y1="264.5" x2="694.8" y2="264.5"/>
<line class="st2" x1="675.9" y1="260.7" x2="675.9" y2="265.2"/>
<line class="st3" x1="673.8" y1="248" x2="673.8" y2="262"/>
<line class="st3" x1="669.8" y1="247.1" x2="669.8" y2="262.4"/>
<line class="st3" x1="666.8" y1="245" x2="666.8" y2="265.6"/>
<line class="st3" x1="668.3" y1="262.2" x2="675.5" y2="262.2"/>
<line class="st3" x1="669.1" y1="247.8" x2="675.9" y2="247.8"/>
<line class="st3" x1="666.6" y1="265.2" x2="669.6" y2="265.2"/>
<line class="st3" x1="666.5" y1="245" x2="669.3" y2="245"/>
<line class="st3" x1="669.1" y1="245.2" x2="669.1" y2="248.4"/>
<line class="st3" x1="669.1" y1="261.6" x2="669.1" y2="264.8"/>
<circle class="st0" cx="79.9" cy="362.3" r="4.5"/>
<circle class="st0" cx="99.4" cy="381.9" r="4.5"/>
<line class="st2" x1="168.3" y1="381.3" x2="165.9" y2="381.3"/>
<line class="st1" x1="150.9" y1="415.2" x2="155.7" y2="415.2"/>
<line class="st2" x1="481.9" y1="364" x2="481.9" y2="359.5"/>
<line class="st2" x1="643.1" y1="343" x2="652.8" y2="343"/>
<line class="st2" x1="497.5" y1="282.1" x2="502.5" y2="282.1"/>
<line class="st1" x1="695.3" y1="384.4" x2="698" y2="384.4"/>
<line class="st1" x1="695.3" y1="384.4" x2="698" y2="384.4"/>
<line class="st1" x1="805.7" y1="384.4" x2="808.5" y2="384.4"/>
<line class="st3" x1="859.5" y1="266.7" x2="877.3" y2="266.7"/>
<line class="st2" x1="729.1" y1="304.8" x2="716.3" y2="304.8"/>
<line class="st2" x1="758.8" y1="356.3" x2="747.1" y2="356.3"/>
<line class="st2" x1="490.8" y1="407.4" x2="492.9" y2="407.4"/>
<line class="st2" x1="512.3" y1="266.2" x2="512.3" y2="282.1"/>
<line class="st2" x1="600.6" y1="369" x2="609.9" y2="369"/>
<line class="st2" x1="738.1" y1="225.6" x2="738.1" y2="237.8"/>
<line class="st2" x1="748.7" y1="225.6" x2="748.7" y2="237.8"/>
<line class="st2" x1="683.6" y1="320.1" x2="683.6" y2="310.5"/>
<line class="st2" x1="696" y1="337" x2="692.5" y2="337"/>
<line class="st2" x1="683.6" y1="337.8" x2="683.6" y2="328.3"/>
<line class="st2" x1="674.2" y1="320" x2="684.4" y2="320"/>
<line class="st3" x1="849.6" y1="259" x2="849.6" y2="244.6"/>
<line class="st2" x1="497.6" y1="407.4" x2="499.7" y2="407.4"/>
<line class="st3" x1="125.7" y1="351.7" x2="144.1" y2="340.3"/>
<line class="st3" x1="126.5" y1="353.4" x2="145.9" y2="342.4"/>
<line class="st3" x1="127.5" y1="355.2" x2="147.4" y2="345.5"/>
<line class="st3" x1="128.5" y1="356.9" x2="148.3" y2="348"/>
<line class="st3" x1="113.1" y1="337.2" x2="124" y2="318.7"/>
<line class="st3" x1="110.9" y1="336" x2="121.5" y2="317.2"/>
<line class="st3" x1="108.9" y1="335" x2="118.6" y2="315.7"/>
<line class="st3" x1="107.5" y1="334.2" x2="116.6" y2="314.5"/>
<path class="st3" d="M113.1,337.5c0,0-2.2,4.3,2.5,9.8c4.9,5.7,10.6,3.7,10.6,3.7"/>
<path class="st3" d="M111.2,335.8c0,0-2,6.3,2.5,12c5.1,6.5,12.6,5.7,12.6,5.7"/>
<path class="st3" d="M108.9,335.2c0,0-1.7,8,3.7,13.9c7.2,8,15.1,5.8,15.1,5.8"/>
<path class="st3" d="M107.3,334.4c0,0-2.5,8.6,5.3,17c7.5,8.2,15.5,5.3,15.5,5.3"/>
<rect x="861.3" y="198.8" class="st5" width="21.3" height="21.3"/>
<line class="st1" x1="649.2" y1="448.5" x2="620.7" y2="448.5"/>
<line class="st1" x1="706.8" y1="448.5" x2="661.3" y2="448.5"/>
<line class="st5" x1="648.8" y1="447" x2="661.5" y2="447"/>
<line class="st5" x1="648.8" y1="444.5" x2="661.5" y2="444.5"/>
<line class="st5" x1="648.8" y1="441.9" x2="661.5" y2="441.9"/>
<line class="st5" x1="648.8" y1="439.4" x2="661.5" y2="439.4"/>
<line class="st5" x1="648.8" y1="436.8" x2="661.5" y2="436.8"/>
<text transform="matrix(1 0 0 1 493.6205 414.3774)" class="st6 st7">A</text>
<text transform="matrix(1 0 0 1 767.1282 270.6167)" class="st6 st8">SS</text>
<text transform="matrix(1 0 0 1 782.9398 272.8267)" class="st6 st7">A</text>
<text transform="matrix(1 0 0 1 633.1263 375.6157)" class="st6 st9">WCM</text>
<path class="st10" d="M76.9,285.1h0.9l-0.3-0.7c-0.1-0.2-0.1-0.4-0.2-0.5c0,0.2-0.1,0.3-0.1,0.5L76.9,285.1z M76.2,286.2l1-2.6h0.4
	l1,2.6h-0.4l-0.3-0.8h-1.1l-0.3,0.8H76.2z"/>
<path class="st10" d="M493.8,291.6h0.7c0.2,0,0.4,0,0.5-0.1c0.1-0.1,0.1-0.2,0.1-0.3c0-0.1,0-0.2-0.1-0.3c-0.1-0.1-0.1-0.1-0.2-0.2
	c-0.1,0-0.2,0-0.3,0h-0.7V291.6z M493.4,293v-2.6h1c0.2,0,0.3,0,0.4,0c0.1,0,0.2,0.1,0.3,0.1c0.1,0.1,0.2,0.1,0.2,0.2
	c0.1,0.1,0.1,0.2,0.1,0.4c0,0.2-0.1,0.4-0.2,0.6c-0.1,0.2-0.4,0.2-0.8,0.2h-0.7v1H493.4z"/>
<path class="st1" d="M658.3,223.5c-22.3,0-40.4-18.1-40.4-40.4c0-22.3,18.1-40.4,40.4-40.4"/>
<line class="st1" x1="643" y1="176.4" x2="656.2" y2="176.4"/>
<line class="st3" x1="527.8" y1="297" x2="527.8" y2="332.1"/>
<line class="st3" x1="591.4" y1="296.7" x2="591.4" y2="331.8"/>
<line class="st3" x1="591.4" y1="297.4" x2="538.8" y2="297.4"/>
<line class="st3" x1="591.4" y1="331.4" x2="527.8" y2="331.4"/>
<line class="st3" x1="528" y1="297" x2="534.2" y2="297"/>
</svg>
